:SAMPLES-PER-SECOND 30
:FULLY-SPECIFIED
:DEGREES
360
root  1.4557 39.17 13.4518 -173.037 22.2486 -179.879
RightUpLeg  -24.4883 15.5426 -8.10758
RightLeg  20.967 8.35671 3.31378
RightFoot  -3.63187 -0.297879 4.03046
RightToes  -1.33073e-015 0 -3.6325e-017
Spine  23.1797 -1.51046 -8.64732
Spine1  5.59952 -3.46222 0.944113
HEad  6.49191 14.2017 1.62381
LeftShoulder1  6.44793 -16.3649 -26.2929
LeftArm  2.20821 -48.2876 -76.8879
LeftForeArm  64.7188 5.12809 -1.2353
LeftHand  -0.246645 0.021 5.37786
RightShoulder  9.04868 17.1655 37.7027
RightArm  -12.6949 37.0748 55.3722
RightForeArm  17.3439 6.93342 6.46257
RightHand  -0.24729 -0.0210522 -5.37781
LeftUpLeg  -8.41348 26.4687 13.9342
LeftLeg  15.2953 10.1777 1.75178
LeftFoot  -3.24836 1.12672 -15.5737
LeftToes  5.09284e-011 3.02203e-011 3.83118e-011
361
root  1.46432 39.1321 13.4001 -173.037 24.6964 -179.725
RightUpLeg  -24.9638 16.8045 -8.04368
RightLeg  21.1748 9.3162 3.75419
RightFoot  -3.53154 -0.287428 3.86472
RightToes  -1.33073e-015 0 -3.6325e-017
Spine  22.7704 -2.137 -10.8048
Spine1  5.73699 -4.59568 1.33274
HEad  6.18896 17.3965 1.33145
LeftShoulder1  6.34821 -16.3339 -25.8237
LeftArm  4.19073 -50.4901 -78.6973
LeftForeArm  67.7496 5.02351 -1.27888
LeftHand  -0.246645 0.021 5.37786
RightShoulder  8.92593 17.0693 37.3247
RightArm  -13.9277 36.8999 55.291
RightForeArm  15.6839 10.0781 6.05366
RightHand  -0.24729 -0.0210522 -5.37781
LeftUpLeg  -7.55002 27.7483 14.3185
LeftLeg  15.8128 10.9781 2.19301
LeftFoot  -3.79578 1.0876 -16.0618
LeftToes  5.09284e-011 3.02203e-011 3.83118e-011
362
root  1.45486 39.0937 13.3308 -172.994 27.2332 -179.424
RightUpLeg  -25.3552 18.1574 -7.88576
RightLeg  21.285 10.2855 4.1852
RightFoot  -3.40127 -0.282951 3.78935
RightToes  -1.33073e-015 0 -3.6325e-017
Spine  22.4392 -2.88648 -12.8015
Spine1  5.66203 -5.79389 1.63739
HEad  6.08467 20.7519 1.21584
LeftShoulder1  6.26109 -16.3136 -25.3995
LeftArm  6.51002 -52.7829 -80.7912
LeftForeArm  70.719 4.9221 -1.35402
LeftHand  -0.246645 0.021 5.37786
RightShoulder  8.81238 16.9694 36.9937
RightArm  -14.3405 36.8252 55.3442
RightForeArm  12.3495 13.6126 5.40336
RightHand  -0.24729 -0.0210522 -5.37781
LeftUpLeg  -6.64896 29.2121 14.8269
LeftLeg  16.4598 11.6895 2.70071
LeftFoot  -4.41362 1.03249 -16.5253
LeftToes  5.09284e-011 3.02203e-011 3.83118e-011
363
root  1.42495 39.0572 13.2494 -172.985 29.8132 -179.059
RightUpLeg  -25.6199 19.4617 -7.67305
RightLeg  21.3479 11.3634 4.65422
RightFoot  -3.23651 -0.281374 3.75414
RightToes  -1.33073e-015 0 -3.6325e-017
Spine  22.2637 -3.76157 -14.5514
Spine1  5.40799 -7.02244 1.69073
HEad  6.1464 24.1651 1.27603
LeftShoulder1  6.11889 -16.2232 -24.7979
LeftArm  9.38415 -55.183 -83.5618
LeftForeArm  73.691 4.81347 -1.41076
LeftHand  -0.246645 0.021 5.37786
RightShoulder  8.67634 16.8471 36.5962
RightArm  -14.8119 36.7947 55.6308
RightForeArm  9.05324 17.7553 4.67432
RightHand  -0.24729 -0.0210522 -5.37781
LeftUpLeg  -5.64383 30.7909 15.3966
LeftLeg  17.1612 12.3544 3.275
LeftFoot  -5.05217 0.966186 -16.9327
LeftToes  5.09284e-011 3.02203e-011 3.83118e-011
364
root  1.38776 39.0152 13.1613 -173.043 32.3894 -178.709
RightUpLeg  -25.8267 20.7037 -7.45742
RightLeg  21.5184 12.5086 5.17945
RightFoot  -3.11776 -0.279478 3.71102
RightToes  -1.33073e-015 0 -3.6325e-017
Spine  22.0815 -4.47212 -16.4603
Spine1  5.28601 -8.19247 2.12162
HEad  6.11145 27.409 1.11366
LeftShoulder1  5.96824 -16.1409 -24.1319
LeftArm  13.752 -57.8299 -87.7367
LeftForeArm  76.2505 4.75505 -1.68556
LeftHand  -0.246645 0.021 5.37786
RightShoulder  8.41383 16.6212 35.7914
RightArm  -17.0798 36.8504 55.8022
RightForeArm  8.44275 22.6265 4.48594
RightHand  -0.24729 -0.0210522 -5.37781
LeftUpLeg  -4.53595 32.4537 15.9915
LeftLeg  17.8901 12.9044 3.88714
LeftFoot  -5.70515 0.892311 -17.3232
LeftToes  5.09284e-011 3.02203e-011 3.83118e-011
365
root  1.35474 38.9636 13.0632 -173.089 34.9068 -178.382
RightUpLeg  -26.0968 22.011 -7.29955
RightLeg  21.8559 13.533 5.70406
RightFoot  -3.11174 -0.27845 3.68033
RightToes  -1.33073e-015 0 -3.6325e-017
Spine  21.9116 -4.96097 -18.6656
Spine1  5.06215 -9.32443 3.23239
HEad  6.08824 30.5141 0.64893
LeftShoulder1  5.93175 -16.2114 -23.8219
LeftArm  19.6246 -60.4397 -93.0275
LeftForeArm  78.0706 4.77932 -2.28216
LeftHand  -0.246645 0.021 5.37786
RightShoulder  8.10705 16.3414 34.8568
RightArm  -21.5342 36.9023 55.269
RightForeArm  11.2886 28.0126 5.42784
RightHand  -0.24729 -0.0210522 -5.37781
LeftUpLeg  -3.40683 34.1159 16.6024
LeftLeg  18.6252 13.3377 4.4828
LeftFoot  -6.35877 0.815762 -17.756
LeftToes  5.09284e-011 3.02203e-011 3.83118e-011
